<svg version="1.1" id="Layer_1" xmlns:x="ns_extend;" xmlns:i="ns_ai;" xmlns:graph="ns_graphs;" xmlns="http://www.w3.org/2000/svg" xmlns:xlink="http://www.w3.org/1999/xlink" x="0px" y="0px" viewBox="0 0 62.5 66" style="enable-background:new 0 0 62.5 66;" xml:space="preserve">
 <style type="text/css">
  .st0{fill:#2932E1;}
 </style>
 <metadata>
  <sfw xmlns="ns_sfw;">
   <slices>
   </slices>
   <sliceSourceBounds bottomLeftOrigin="true" height="66" width="62.5" x="96.7" y="-261.5">
   </sliceSourceBounds>
  </sfw>
 </metadata>
 <g>
  <path class="st0" d="M9.1,35c4.9-0.7,6.6-5.6,6.1-10.4c-0.4-4.2-3.3-9-7.9-8.6C2.7,16.4,0,20.8,0,26C0,30.9,3.4,35.8,9.1,35">
  </path>
  <path class="st0" d="M22.7,19.6c4.8-0.5,6.5-5.4,6.4-10.2C28.9,4,26-0.2,21.4,0c-4.1,0.2-7.4,4.3-7.6,9.8
		C13.6,15.6,17.3,20.1,22.7,19.6">
  </path>
  <path class="st0" d="M53.4,35c-4.9-0.7-6.6-5.6-6.1-10.4c0.4-4.2,3.3-9,7.9-8.6c4.5,0.4,7.2,4.8,7.2,10C62.5,30.9,59,35.8,53.4,35">
  </path>
  <path class="st0" d="M39.8,19.6c-4.8-0.5-6.5-5.4-6.4-10.2C33.6,4,36.5-0.2,41.1,0c4.1,0.2,7.4,4.3,7.6,9.8
		C48.9,15.6,45.2,20.1,39.8,19.6">
  </path>
  <path class="st0" d="M16.6,51.5c0,2.1,1.5,4,3.8,4h3.9l0-7.9h-4C18,47.5,16.6,49.4,16.6,51.5">
  </path>
  <path class="st0" d="M50.2,40.5c-1.5-1.5-5.8-4.3-9.1-9.7c-2.2-3.6-5.9-6-9.9-5.9c-3.9-0.1-7.7,2.3-9.9,5.9
		c-3.3,5.4-7.5,8.3-9.1,9.7C10.4,42.3,2.2,46.7,4,56.2c1.8,9.4,10.6,9.8,10.6,9.8s4.2,0.4,11.3-1.3c1.9-0.4,3.8-0.6,5.3-0.6
		c1.6,0,3.4,0.2,5.3,0.6c7.1,1.7,11.3,1.3,11.3,1.3s8.9-0.4,10.6-9.8C60.3,46.7,52.1,42.3,50.2,40.5 M28.9,59.9h-1.6h-3h-3.6
		c-5.5,0-8.7-3.6-8.7-8.6c0-4.6,3.4-8.3,8.4-8.3h3.9l0-7.2h4.6V59.9z M47.6,59.9h-9.5c-3.9,0-5.6-2.1-5.6-5.1V42.9h4.5v10.4
		c0,1.6,0.7,2.1,1.5,2.1h4.6l0-12.6h4.5V59.9z">
  </path>
 </g>
</svg>